<?xml version="1.0" encoding="UTF-8"?>
<svg id="_图层_1" data-name="图层 1" xmlns="http://www.w3.org/2000/svg" viewBox="0 0 500 500">
  <defs>
    <style>
      .cls-1 {
        fill-rule: evenodd;
      }

      .cls-1, .cls-2 {
        fill: #7b4539;
      }

      .cls-3 {
        fill: #fff;
      }

      .cls-4 {
        fill: none;
      }

      .cls-5 {
        fill: #060001;
      }
    </style>
  </defs>
  <path class="cls-2" d="M250,20.67C123.34,20.67,20.67,123.34,20.67,250s102.68,229.33,229.33,229.33,229.33-102.68,229.33-229.33S376.66,20.67,250,20.67ZM404.16,404.16c-41.18,41.18-95.93,63.86-154.16,63.86s-112.98-22.68-154.16-63.86c-38.36-38.36-60.66-88.5-63.53-142.27-.06-1.18.74-2.24,1.89-2.51l8.13-1.91c1.1-.26,1.89-1.25,1.89-2.38v-7.8c0-1.11-.75-2.08-1.82-2.36l-8.36-2.21c-1.11-.29-1.87-1.32-1.82-2.47,2.39-54.57,24.76-105.54,63.63-144.41,41.18-41.18,95.93-63.86,154.16-63.86s112.98,22.68,154.16,63.86c38.8,38.8,61.16,89.65,63.61,144.1.05,1.17-.74,2.22-1.89,2.49l-8.21,1.93c-1.1.26-1.89,1.25-1.89,2.38v7.8c0,1.11.75,2.08,1.82,2.36l8.28,2.19c1.12.3,1.88,1.33,1.82,2.49-2.8,53.88-25.11,104.15-63.54,142.58Z"/>
  <g>
    <path class="cls-2" d="M395.51,104.49c12.1,12.1,22.51,25.45,31.11,39.75.24.4.75.53,1.15.3l5.41-3.12c.41-.24.55-.77.31-1.18-8.94-14.88-19.76-28.78-32.35-41.37-18.93-18.93-40.78-33.86-64.54-44.39-.44-.19-.95.01-1.14.45l-2.44,5.75c-.18.43.01.92.44,1.11,22.84,10.14,43.85,24.5,62.05,42.7Z"/>
    <path class="cls-2" d="M395.51,395.51c-18.2,18.2-39.22,32.56-62.06,42.69-.43.19-.62.68-.44,1.11l2.44,5.75c.19.44.7.64,1.14.45,23.76-10.53,45.62-25.45,64.54-44.38,9.89-9.89,18.69-20.58,26.35-31.92.27-.4.16-.94-.25-1.2l-5.24-3.4c-.39-.25-.91-.15-1.17.24-7.36,10.89-15.81,21.16-25.32,30.66Z"/>
    <path class="cls-2" d="M298.87,450.82l1.41,6.09c.11.46.58.75,1.04.64,9.96-2.44,19.71-5.6,29.17-9.44.44-.18.65-.69.47-1.13l-2.44-5.75c-.18-.43-.67-.63-1.1-.45-9.06,3.67-18.38,6.69-27.91,9.03-.45.11-.73.56-.63,1.02Z"/>
    <path class="cls-2" d="M252.45,456.6v6.24c0,.48.39.87.87.86,14.12-.21,28.01-1.8,41.54-4.67.47-.1.76-.57.66-1.03l-1.4-6.08c-.1-.45-.55-.74-1.01-.64-12.97,2.75-26.28,4.27-39.81,4.48-.47,0-.84.38-.84.85Z"/>
    <path class="cls-2" d="M449.02,194.14l6.03-1.62c.46-.12.73-.6.6-1.06-4.49-15.86-10.8-31.11-18.84-45.49-.23-.42-.76-.56-1.18-.32l-5.41,3.12c-.4.23-.54.74-.32,1.15,7.7,13.8,13.76,28.42,18.07,43.63.13.45.59.71,1.04.59Z"/>
    <path class="cls-2" d="M328.52,58.76l2.44-5.75c.19-.44-.02-.95-.47-1.13-24.23-9.84-50.3-15.17-77.18-15.58-.48,0-.87.38-.87.86v6.24c0,.47.37.84.84.85,25.81.4,50.85,5.52,74.13,14.96.43.17.92-.03,1.1-.45Z"/>
    <path class="cls-2" d="M424.67,360.52l5.24,3.4c.4.26.94.14,1.19-.26,8.14-12.92,14.83-26.62,19.99-40.91.16-.45-.08-.95-.53-1.1l-5.91-2.03c-.44-.15-.92.08-1.08.52-4.95,13.7-11.37,26.83-19.17,39.22-.25.39-.14.91.26,1.17Z"/>
    <path class="cls-2" d="M75.33,139.48l-5.24-3.4c-.4-.26-.94-.14-1.19.26-8.14,12.92-14.83,26.62-19.99,40.91-.16.45.08.95.53,1.1l5.91,2.03c.44.15.92-.08,1.08-.52,4.95-13.7,11.37-26.83,19.17-39.22.25-.39.14-.91-.26-1.17Z"/>
    <path class="cls-2" d="M50.98,305.86l-6.03,1.62c-.46.12-.73.6-.6,1.06,4.49,15.86,10.8,31.11,18.84,45.49.23.42.76.56,1.18.32l5.41-3.12c.4-.23.54-.74.32-1.15-7.7-13.8-13.76-28.42-18.07-43.63-.13-.45-.59-.71-1.04-.59Z"/>
    <path class="cls-2" d="M104.49,395.51c-12.1-12.1-22.51-25.45-31.11-39.75-.24-.4-.75-.53-1.15-.3l-5.41,3.12c-.41.24-.55.77-.31,1.18,8.94,14.88,19.76,28.77,32.35,41.37,18.93,18.93,40.78,33.86,64.54,44.39.44.19.95-.01,1.14-.45l2.44-5.75c.18-.43-.01-.92-.44-1.11-22.84-10.14-43.85-24.5-62.05-42.7Z"/>
    <path class="cls-2" d="M171.48,441.24l-2.44,5.75c-.19.44.02.95.47,1.13,24.23,9.84,50.3,15.17,77.18,15.58.48,0,.87-.38.87-.86v-6.24c0-.47-.37-.84-.84-.85-25.81-.4-50.85-5.52-74.13-14.96-.43-.17-.92.03-1.1.45Z"/>
    <path class="cls-2" d="M201.13,49.18l-1.41-6.09c-.11-.46-.58-.75-1.04-.64-9.96,2.44-19.71,5.6-29.17,9.44-.44.18-.65.69-.47,1.13l2.44,5.75c.18.43.67.63,1.1.45,9.06-3.67,18.38-6.69,27.91-9.03.45-.11.73-.56.63-1.02Z"/>
    <path class="cls-2" d="M104.49,104.49c18.2-18.2,39.22-32.56,62.06-42.69.43-.19.62-.68.44-1.11l-2.44-5.75c-.19-.44-.7-.64-1.14-.45-23.76,10.53-45.62,25.45-64.54,44.38-9.89,9.89-18.69,20.58-26.35,31.92-.27.4-.16.94.25,1.2l5.24,3.4c.39.25.91.15,1.17-.24,7.36-10.89,15.81-21.16,25.32-30.66Z"/>
    <path class="cls-2" d="M247.55,43.4v-6.24c0-.48-.39-.87-.87-.86-14.12.21-28.01,1.8-41.54,4.67-.47.1-.76.57-.66,1.03l1.4,6.08c.1.45.55.74,1.01.64,12.97-2.75,26.28-4.27,39.81-4.48.47,0,.84-.38.84-.85Z"/>
    <path class="cls-2" d="M456.51,261.04h0c-.52-.14-1.04.24-1.07.78-1.01,17.91-4.29,35.39-9.73,52.1-.14.44.09.92.53,1.07l5.84,2.01c.45.16.95-.09,1.09-.54,5.56-17.01,9-34.76,10.13-52.9.03-.41-.24-.78-.64-.88l-6.16-1.63Z"/>
    <path class="cls-2" d="M455.52,239.44c.03.54.54.91,1.07.78.04,0,.07-.02.11-.03l6.03-1.42c.4-.1.68-.47.66-.88-.76-13.6-2.81-26.98-6.07-40.01-.12-.46-.59-.74-1.05-.62l-5.98,1.6c-.45.12-.72.58-.6,1.03,3.2,12.85,5.17,26.08,5.85,39.54Z"/>
    <path class="cls-2" d="M44.58,262.36c-.03-.54-.55-.91-1.07-.77-.07.02-.14.04-.21.05l-5.93,1.4c-.41.1-.69.47-.66.89.83,12.97,2.85,25.74,5.97,38.19.12.46.59.74,1.05.62l5.99-1.6c.45-.12.72-.58.6-1.03-3.06-12.27-4.99-24.9-5.74-37.74Z"/>
    <path class="cls-2" d="M43.49,240.79c.32.08.62.19.92.32.8-18.93,4.14-37.41,9.88-55.03.14-.44-.09-.92-.53-1.07l-5.84-2.01c-.45-.16-.95.09-1.09.54-5.74,17.57-9.21,35.94-10.22,54.72-.02.41.25.77.64.88l6.26,1.66Z"/>
  </g>
  <g>
    <g>
      <path class="cls-2" d="M160.61,127.72c2.49-8.71,15.61-28.05,30.49-39.83,13.83-10.95,31.62-15.36,46.05-16.18,0,0-4.98,4.3-10.58,9.96-5.41,5.47-10.58,9.96-9.34,17.43,0,0,17.43-27.38,43.56-19.29,0,0-14.31,1.87-18.67,6.22-1.97,1.97-4.26,6.51,3.73,3.73,14.31-4.98,30.44-.28,36.72.62,4.36.62,8.71-2.49,2.49-6.85-1.84-1.29-3.11-2.49-3.11-2.49,0,0,3.11-1.87,8.09-1.24,2.89.36,9.34,1.87,9.34,1.87,0,0,0-3.11-9.34-8.71-3.11-1.87-10.58-3.11-10.58-3.11,0,0,9.32-3.07,21.16,1.87,7.47,3.11,12.86,9.25,17.32,22.36,4.46,13.11,11.15,19.33,18.77,19.33,5.6,0,6.02-1.24,6.02-5.4,0-6.42-10.38-7.66-10.38-7.66,0,0,11.64-6.62,29.25,7.47,12.45,9.96,16.8,23.03,16.8,23.03,0,0-11.2-11.82-22.4-13.07-8.92-.99-22.4,3.73-32.36-2.49-15.39-9.62-34.23-21.16-56.63-21.16-29.87,0-48.54,13.07-43.19,27.2,1.99,5.26,6.37,7.03,10.21,7.03,4.22,0,6.31-2.76,6.31-6.85,0-1.87-.71-4.36-3.82-4.36-5.6,0-3.73,6.85-3.73,6.85,0,0-2.49-1.87-2.49-4.36,0-4.05,3.11-6.24,6.22-6.24s8.09,1.88,8.09,8.73c0,6.22-5.68,11.82-13.69,11.82-4.39,0-16.18-3.73-19.91-9.96-5.16-8.6-5.6-16.8-3.73-28.01,0,0-9.37,3.87-7.18,22.16,2.2,18.29,25.47,20.95,32.81,19.62s22.14-6.53,15.8-19.62c-4.1-8.47-10.94-9.09-10.94-9.09,0,0,3.82-1.7,8.71,0s14.31,7.47,15.56,18.05c0,0-2.49-3.11-4.36-4.36-1.52-1.02-2.64-.55-3.5,1.9-.86,2.45-2.48,17.09-20.96,18.15-19.1,1.1-24.7-7.61-44.62,1.72-17.14,8.03-23.03,18.67-26.14,23.03,0,0,1.57-15.75,16.26-29.13,11.75-10.7,15.14-12.48,13.73-18.85-1.36-6.16-11.94.06-11.94.06,0,0,.62-4.36,4.36-9.96,2.49-3.73,4.36-7.47,4.36-7.47,0,0-7.47,1.87-13.69,9.34-4.8,5.76-11.8,13.65-13.69,17.43-2.49,4.98-1.79.65-1.24-1.24Z"/>
      <path class="cls-1" d="M252.72,104.7s9.34-2.49,14.94,8.71c5.85,11.7,11.82,17.43,18.67,17.43s13.07-4.98,13.07-11.82c0-4.36-4.36-7.47-8.71-7.47-3.73,0-7.47,2.49-7.47,6.22,0,3.11,3.11,4.98,4.98,4.98,2.49,0,4.36-2.49,4.36-2.49,0,0-2.49,5.6-6.22,5.6-7.47,0-8.58-7.08-16.8-18.05-7.47-9.96-16.8-3.11-16.8-3.11Z"/>
    </g>
    <g>
      <path class="cls-2" d="M108.65,297.05c-7.52-5.06-21.85-23.51-28.46-41.31-6.14-16.54-4.84-34.82-1.16-48.8,0,0,2.55,6.07,6.2,13.14,3.53,6.84,6.2,13.14,13.69,14.26,0,0-20.66-25.03-4.89-47.39,0,0-2.65,14.19.15,19.68,1.26,2.48,4.88,6.07,4.71-2.4-.31-15.15,9.14-29.03,11.94-34.73,1.94-3.95.32-9.06-5.74-4.48-1.79,1.35-3.33,2.19-3.33,2.19,0,0-.81-3.54,1.32-8.08,1.23-2.63,4.66-8.3,4.66-8.3,0,0-2.96-.96-11.17,6.19-2.74,2.38-6.23,9.1-6.23,9.1,0,0-.04-9.81,8.31-19.55,5.27-6.14,12.77-9.37,26.62-9.56,13.85-.19,21.83-4.63,24.19-11.88,1.73-5.33.68-6.11-3.28-7.4-6.11-1.98-10.5,7.5-10.5,7.5,0,0-2.7-13.12,16.14-25.51,13.32-8.76,27.09-8.87,27.09-8.87,0,0-14.71,7-19.35,17.27-3.7,8.18-3.37,22.46-12.37,30.01-13.9,11.66-30.7,26.01-37.62,47.32-9.23,28.41-2.57,50.21,12.52,49.48,5.61-.27,8.66-3.89,9.84-7.54,1.31-4.02-.68-6.85-4.56-8.11-1.78-.58-4.36-.68-5.32,2.28-1.73,5.33,5.36,5.67,5.36,5.67,0,0-2.54,1.79-4.91,1.02-3.85-1.25-4.98-4.89-4.01-7.85.96-2.96,4.28-7.11,10.81-5,5.92,1.92,9.49,9.06,7.01,16.68-1.36,4.17-8.55,14.24-15.62,15.86-9.78,2.25-17.71.13-27.79-5.1,0,0,.79,10.11,18.86,13.67,18.07,3.56,27.79-17.75,28.8-25.15,1.01-7.4.63-23.07-13.78-21.09-9.32,1.28-12.03,7.6-12.03,7.6,0,0-.43-4.16,2.69-8.29,3.13-4.12,11.53-11.31,21.97-9.22,0,0-3.73,1.41-5.49,2.8-1.44,1.13-1.34,2.35.73,3.92,2.07,1.57,15.49,7.64,10.79,25.54-4.85,18.51-14.87,21.14-12.15,42.97,2.34,18.78,10.64,27.67,13.82,31.97,0,0-14.49-6.36-22.68-24.47-6.55-14.48-7.19-18.26-13.68-18.88-6.28-.61-3.63,11.38-3.63,11.38,0,0-3.95-1.94-8.12-7.22-2.78-3.52-5.76-6.45-5.76-6.45,0,0-.53,7.68,4.65,15.91,3.99,6.34,9.33,15.44,12.34,18.41,3.97,3.91.06,1.9-1.57.8Z"/>
      <path class="cls-1" d="M115.21,202.34s.52-9.65,12.9-11.51c12.94-1.95,20.23-5.86,22.34-12.37,2.12-6.51-.7-13.97-7.21-16.08-4.14-1.35-8.45,1.84-9.8,5.98-1.15,3.55.06,7.87,3.61,9.03,2.96.96,5.7-1.42,6.27-3.2.77-2.37-1.02-4.91-1.02-4.91,0,0,4.56,4.1,3.4,7.65-2.31,7.1-9.39,5.97-22.36,10.4-11.78,4.03-8.15,15.02-8.15,15.02Z"/>
    </g>
    <g>
      <path class="cls-2" d="M253.64,398.8c-7.14,5.59-29.12,13.52-48.08,14.3-17.63.73-34.61-6.16-46.77-13.98,0,0,6.56-.55,14.41-1.84,7.59-1.25,14.41-1.84,17.79-8.61,0,0-30.19,11.91-46.58-10,0,0,12.68,6.9,18.76,5.94,2.75-.44,7.28-2.77-.83-5.22-14.51-4.39-24.78-17.67-29.34-22.09-3.16-3.06-8.51-3.11-6.04,4.08.73,2.12,1.05,3.84,1.05,3.84,0,0-3.61-.32-7.28-3.75-2.12-1.99-6.45-7-6.45-7,0,0-1.83,2.52,2.43,12.54,1.42,3.34,6.73,8.74,6.73,8.74,0,0-9.34-2.99-16.02-13.95-4.21-6.91-4.97-15.05-.87-28.27,4.1-13.23,2.34-22.2-3.83-26.68-4.53-3.29-5.6-2.53-8.05.83-3.78,5.2,3.89,12.3,3.89,12.3,0,0-13.31-1.49-19.27-23.23-4.22-15.37-.06-28.51-.06-28.51,0,0,2.11,16.15,10.44,23.74,6.64,6.05,20.32,10.15,24.72,21.04,6.8,16.82,15.25,37.24,33.38,50.41,24.17,17.56,46.95,17.96,50.93,3.39,1.48-5.42-1.02-9.44-4.13-11.69-3.42-2.48-6.73-1.47-9.13,1.83-1.1,1.51-1.99,3.94.53,5.77,4.53,3.29,7.04-3.34,7.04-3.34,0,0,.92,2.97-.55,4.99-2.38,3.28-6.19,3.22-8.7,1.39-2.52-1.83-5.44-6.27-1.41-11.82,3.66-5.03,11.55-6.23,18.03-1.52,3.55,2.58,10.9,12.53,10.26,19.76-.88,10-5.35,16.89-13.44,24.85,0,0,9.86,2.38,18.83-13.71,8.97-16.09-8.29-31.92-15.02-35.16-6.72-3.24-21.74-7.73-24.31,6.58-1.66,9.26,3.51,13.79,3.51,13.79,0,0-4.09-.87-7.05-5.12-2.96-4.25-7.19-14.46-1.98-23.75,0,0,.18,3.98.96,6.09.64,1.72,1.82,2,3.95.52,2.13-1.48,12.05-12.37,27.63-2.37,16.1,10.34,15.51,20.68,37.11,24.83,18.59,3.57,29.6-1.57,34.68-3.27,0,0-10.53,11.82-30.28,14.01-15.79,1.75-19.59,1.2-22.19,7.18-2.52,5.79,9.7,6.97,9.7,6.97,0,0-3.06,3.16-9.38,5.5-4.21,1.56-7.91,3.48-7.91,3.48,0,0,7.14,2.88,16.56.5,7.27-1.84,17.57-4.11,21.32-6.05,4.94-2.56,1.83.53.28,1.74Z"/>
      <path class="cls-1" d="M165.59,363.29s-9.02-3.47-6.96-15.83c2.14-12.91.68-21.05-4.86-25.07-5.54-4.02-13.5-3.65-17.52,1.88-2.56,3.52-.87,8.6,2.66,11.16,3.02,2.19,7.51,2.38,9.7-.65,1.83-2.52.41-5.86-1.1-6.95-2.01-1.46-4.99-.55-4.99-.55,0,0,5.31-3.07,8.33-.87,6.04,4.39,2.78,10.77,2.99,24.48.19,12.45,11.77,12.39,11.77,12.39Z"/>
    </g>
    <g>
      <path class="cls-2" d="M395.2,292.35c3.11,8.51,3.86,31.87-1.26,50.15-4.76,16.99-16.55,31.02-27.75,40.16,0,0,1.51-6.4,2.71-14.27,1.16-7.61,2.71-14.27-2.69-19.58,0,0,2,32.4-23.9,41.21,0,0,10.48-9.92,11.45-16.01.44-2.75-.38-7.78-5.22-.83-8.65,12.44-24.46,18.11-30.07,21.08-3.89,2.06-5.59,7.14,2.01,7,2.24-.04,3.98.18,3.98.18,0,0-1.42,3.34-5.81,5.76-2.55,1.4-8.65,3.98-8.65,3.98,0,0,1.83,2.52,12.67,1.56,3.61-.32,10.39-3.7,10.39-3.7,0,0-5.73,7.96-18.22,10.93-7.87,1.87-15.84.07-27.16-7.91-11.31-7.98-20.39-9.09-26.55-4.61-4.53,3.29-4.14,4.55-1.7,7.91,3.78,5.2,12.9.1,12.9.1,0,0-5.53,12.2-28.05,11.15-15.92-.74-27.13-8.75-27.13-8.75,0,0,16.01,2.98,25.81-2.6,7.8-4.44,15.93-16.19,27.64-17.01,18.1-1.26,40.13-3,58.25-16.17,24.17-17.56,31.59-39.11,18.96-47.39-4.7-3.08-9.29-1.95-12.39.31-3.42,2.48-3.48,5.94-1.08,9.25,1.1,1.51,3.13,3.11,5.65,1.28,4.53-3.29-1-7.73-1-7.73,0,0,3.11.05,4.57,2.06,2.38,3.28,1.15,6.88-1.36,8.71-2.52,1.83-7.65,3.24-11.68-2.31-3.66-5.03-2.35-12.91,4.13-17.61,3.55-2.58,15.29-6.49,21.96-3.65,9.23,3.93,14.41,10.3,19.48,20.46,0,0,5.31-8.64-7.22-22.15-12.53-13.51-32.92-1.98-38.08,3.42-5.16,5.39-14.07,18.29-1.25,25.16,8.29,4.44,14.2.92,14.2.92,0,0-2.1,3.62-7.05,5.12-4.95,1.5-15.97,2.37-23.2-5.46,0,0,3.84,1.05,6.09.96,1.83-.07,2.46-1.11,1.71-3.6-.75-2.49-8.04-15.28,6.29-27.01,14.81-12.12,24.46-8.36,35.08-27.62,9.14-16.57,7.65-28.64,7.61-33.99,0,0,7.98,13.67,3.97,33.12-3.21,15.56-4.91,19-.03,23.32,4.73,4.19,9.63-7.07,9.63-7.07,0,0,2.06,3.89,2.33,10.62.18,4.48.87,8.6.87,8.6,0,0,4.94-5.9,5.59-15.6.5-7.48,1.53-17.98.83-22.15-.91-5.49,1.06-1.57,1.74.28Z"/>
      <path class="cls-1" d="M334.22,365.12s-6.09,7.5-17.2,1.73c-11.61-6.03-19.81-7.15-25.35-3.12-5.54,4.02-7.65,11.71-3.62,17.25,2.56,3.52,7.91,3.48,11.44.92,3.02-2.19,4.58-6.4,2.38-9.42-1.83-2.52-5.44-2.2-6.95-1.1-2.01,1.46-2.06,4.57-2.06,4.57,0,0-1.28-5.99,1.74-8.19,6.04-4.39,11.1.69,24.2,4.72,11.89,3.67,15.42-7.36,15.42-7.36Z"/>
    </g>
    <g>
      <path class="cls-2" d="M337.71,124.82c9.06-.32,31.5,6.18,47.3,16.69,14.69,9.77,24.38,25.33,29.62,38.8,0,0-5.63-3.41-12.74-6.98-6.88-3.45-12.74-6.98-19.46-3.49,0,0,31.43,8.11,31.81,35.47,0,0-6.2-13.04-11.69-15.83-2.48-1.26-7.51-2.04-2.4,4.71,9.16,12.07,9.67,28.86,10.75,35.11.75,4.34,5.06,7.52,7.28.25.66-2.15,1.41-3.73,1.41-3.73,0,0,2.74,2.38,3.68,7.31.55,2.86,1.11,9.46,1.11,9.46,0,0,2.96-.96,5.4-11.57.81-3.54-.31-11.02-.31-11.02,0,0,5.8,7.91,4.76,20.7-.65,8.06-4.83,15.09-15.92,23.38-11.09,8.29-14.94,16.58-12.59,23.83,1.73,5.33,3.04,5.34,7,4.06,6.11-1.98,4.08-12.24,4.08-12.24,0,0,9.89,9.03,1.94,30.13-5.62,14.91-16.71,23.1-16.71,23.1,0,0,7.78-14.31,5.51-25.35-1.81-8.79-10.47-20.15-7.63-31.55,4.39-17.6,9.55-39.09,2.62-60.4-9.23-28.41-27.43-42.13-39.21-32.68-4.38,3.52-4.72,8.23-3.53,11.88,1.31,4.02,4.58,5.14,8.46,3.88,1.78-.58,3.93-2.02,2.96-4.98-1.73-5.33-7.66-1.44-7.66-1.44,0,0,1.01-2.94,3.37-3.71,3.85-1.25,6.9,1.03,7.86,3.99.96,2.96.72,8.27-5.81,10.39-5.92,1.92-13-1.75-15.48-9.37-1.36-4.17-1.45-16.54,3.32-22.02,6.59-7.57,14.25-10.52,25.48-12.21,0,0-6.58-7.72-23.3.02-16.72,7.74-12.05,30.69-8.52,37.27,3.53,6.58,13.05,19.04,23.54,8.97,6.79-6.51,5.27-13.22,5.27-13.22,0,0,2.8,3.11,2.69,8.29-.1,5.17-2.68,15.92-12.36,20.37,0,0,2.19-3.33,2.8-5.49.49-1.76-.3-2.68-2.89-2.74s-17.02,2.92-23.74-14.32c-6.95-17.83-.4-25.85-15.43-41.9-12.94-13.82-24.87-16.13-29.98-17.74,0,0,15.47-3.37,32.73,6.46,13.81,7.86,16.55,10.54,22.17,7.23,5.44-3.2-3.75-11.34-3.75-11.34,0,0,4.34-.75,10.82,1.07,4.32,1.21,8.45,1.84,8.45,1.84,0,0-4.08-6.53-13.11-10.14-6.96-2.78-16.63-7.01-20.8-7.64-5.5-.83-1.17-1.5.8-1.57Z"/>
      <path class="cls-1" d="M388.07,205.3s5.25,8.11-3.67,16.9c-9.32,9.18-12.92,16.63-10.8,23.14,2.12,6.51,8.77,10.89,15.28,8.78,4.14-1.35,5.76-6.45,4.41-10.59-1.15-3.55-4.68-6.33-8.23-5.18-2.96.96-3.77,4.5-3.2,6.27.77,2.37,3.71,3.37,3.71,3.37,0,0-6.1-.64-7.25-4.19-2.31-7.1,4.09-10.35,11.97-21.56,7.16-10.18-2.23-16.94-2.23-16.94Z"/>
    </g>
  </g>
  <path class="cls-4" d="M254.05,263.51c-1.17.54-2.34,1.08-3.53,1.57-2.65,1.11-5.38,2.3-7.92,3.65.26-.52.52-1.03.78-1.54.94-1.9,2.19-3.58,3.08-5.51.3-.65.63-1.29.95-1.94.33-.63.66-1.27.99-1.9.85,1.26,1.89,2.4,3.05,3.44.83.75,1.69,1.51,2.6,2.23Z"/>
  <path class="cls-2" d="M309.34,294.87c-.81,1.51-1.83,2.48-2.9,3.76-1.04,1.24-1.85,2.54-3.03,3.68-2.38,2.28-4.7,4.8-7.45,6.63-.17.11-.35-.13-.18-.26,1.27-1,2.35-2.27,3.37-3.51,1.17-1.41,2.48-2.68,3.71-4.04,1.02-1.14,1.64-2.46,2.55-3.65.54-.71,1.04-1.4,1.5-2.11-.13.13-.26.27-.4.39-2.86,2.54-5.83,5.01-8.93,7.26-3.43,2.49-6.55,5.34-9.81,8.06-1.2.99-2.37,2.1-3.83,2.63-1.4.52-2.74,1.23-4.13,1.81-3.99,1.67-7.91,2.98-12.14,3.9-3.75.82-7.53,1.28-11.34,1.66-1.84.18-3.86.08-5.72.03-1.84-.05-3.6-.11-5.4-.44-.45-.08-.88-.2-1.33-.3,1.68.63,3.29,1.31,5.07,1.69,1.05.22,2.06.62,3.11.83.96.19,1.94.2,2.9.44.22.06.16.35-.06.34-1.15-.04-2.28.02-3.41-.18-1.05-.19-2.07-.49-3.11-.7-2-.4-3.8-1.27-5.72-1.92-2.02-.68-4.02-1.66-5.89-2.68-.95-.51-1.94-.96-2.86-1.53-.39-.24-.77-.51-1.15-.77-.16-.1-.33-.21-.49-.32-.41-.28-.82-.55-1.26-.79-.07-.04-.09-.09-.1-.15-.66-.47-1.33-.95-2.01-1.39-.14-.09-.25-.18-.38-.27.11.16.22.32.33.48,1.47,2.15,2.82,3.81,5.28,4.82,3.09,1.27,5.93,2.92,8.98,4.26,2.73,1.2,5.61,1.74,8.51,2.33,3.31.67,6.59.31,9.93-.04,2.8-.3,5.87-.62,8.49-1.63,1.16-.45,2.33-.73,3.55-.92.98-.16,1.73-.5,2.59-.81-2,.51-4.02.49-6.05.06-.25-.05-.19-.42.07-.39,2.56.3,5-.18,7.38-1.16,1.94-.79,3.83-1.66,5.77-2.48,2.4-1.01,4.6-2.26,6.81-3.63,2.15-1.34,4.38-2.52,6.53-3.87.17-.11.35.14.18.26-4.22,3.22-8.69,6.26-13.56,8.39-1.72.75-3.43,1.57-5.2,2.23,1.8-.53,3.66-1.08,5.36-1.83,2.79-1.23,5.25-3.2,8.02-4.51,2.43-1.15,4.89-2.12,7.07-3.73,1.35-1,2.07-2.32,3.21-3.48.84-.86,1.94-1.4,2.77-2.27,1.85-1.96,2.55-4.85,3.97-7.11,1.47-2.33,2.7-4.8,4.19-7.12.8-1.24,1.67-2.43,2.42-3.71.39-.67.63-1.33.84-2.02-.31.34-.63.68-.94,1.02-2.3,2.58-4.07,5.73-5.69,8.78Z"/>
  <path class="cls-2" d="M273.97,279.88c-.32.21-.64.39-.95.63-2.36,1.77-4.21,4.33-6.86,5.68-2.62,1.33-5.8.81-8.63.86-1.06.02-2.12.14-3.17.32.78-.31,1.56-.63,2.35-.95,1.26-.5,2.76-.6,4.12-.75,1.31-.14,2.58.31,3.87.11.88-.13,1.71-.54,2.46-.96,2.11-1.18,3.88-2.91,5.82-4.34.3-.23.64-.42.99-.6Z"/>
  <path class="cls-2" d="M299.05,275.39c.75-.25,1.46-.56,2.17-.84-1.37.19-2.74.28-4.14.15-2.99-.27-5.78-.15-8.77.03-2.65.16-5.19.47-7.65,1.55-1.06.46-2.02,1.06-3,1.66,4-1.59,8.29-1.92,12.8-2.33,2.86-.26,5.79.74,8.58-.21Z"/>
  <path class="cls-2" d="M306.53,273.77c-.42.04-.83.09-1.25.14.21.04.42.09.63.16.21-.1.41-.19.62-.3Z"/>
  <path class="cls-2" d="M316.77,282.39c.15-.5.26-.98.36-1.47-.29.6-.57,1.21-.84,1.82.16-.12.32-.24.48-.35Z"/>
  <path class="cls-2" d="M252.33,298.43c-.42.14-.85.31-1.33.53-3.18,1.5-7.09.54-10.46,1.01-.85.12-1.67.37-2.54.38-.29,0-.57,0-.84-.01.45-.04.9-.09,1.34-.19,2.79-.61,5.71-.95,8.56-1.35,1.75-.25,3.43-.34,5.1-.63.06.09.11.18.17.27Z"/>
  <path class="cls-2" d="M255.28,297.91s-.04,0-.06,0c-.44.02-.82.06-1.19.11-.07-.08-.14-.16-.21-.24.38-.11.77-.24,1.15-.39.12.17.22.34.32.5Z"/>
  <path class="cls-2" d="M266.72,292.11c-.59.45-1.19.9-1.84,1.25-.91.5-1.84.94-2.83,1.23-.74.21-1.52.3-2.14.78-.75.58-.98,1.37-1.91,1.84-.59.31-1.11.47-1.66.57-.14-.27-.28-.53-.44-.78,2.52-1.11,4.92-2.49,7.46-3.57,1.07-.46,2.2-.9,3.35-1.32Z"/>
  <path class="cls-2" d="M263.09,290.47c-2.64,1.08-5.2,2.52-7.71,3.88-1.23.67-2.5.9-3.75,1.44-1.48.63-2.94,1.24-4.5,1.69-1.66.47-3.53.9-5.27,1.06-.63.06-1.22.16-1.8.27.22-.09.44-.18.66-.29,2.7-1.33,4.89-3.25,7.28-5.03,2.68-1.99,5.9-2.89,9.2-3,1.99-.07,3.94.11,5.89-.01Z"/>
  <path class="cls-2" d="M311.86,265.4s.02.05.03.07c0,0,0-.02,0-.03,0,0,0,0,0,0,0,0,0,0-.03-.03Z"/>
  <path class="cls-2" d="M316.03,267.14c-.97-.93-2.21-1.71-3.23-2.62-1.03-.92-2.18-1.74-3.28-2.58-2.19-1.67-4.29-3.06-6.92-3.68-1.26,2.29-2.68,4.54-4.47,6.33-2.55,2.55-6.28,4.35-9.46,5.99-2.94,1.51-6.19,2.96-9.55,2.71-3.04-.22-6.73-1.54-8.48-4.19-.73-1.11-1.24-2.39-1.62-3.73-.16.22-.4.33-.66.31-.07.05-.14.11-.24.15-.97.41-2.02.6-3.07.64-.98.04-1.99.01-2.97-.08-.95.33-1.89.66-2.84.95-.67.21-1.3.37-1.93.7-.49.27-1.03.35-1.56.53-1.3.44-2.63.85-3.79,1.61-.33.22-.68-.27-.35-.5,1.15-.83,2.53-1.4,3.86-1.86.65-.23,1.25-.37,1.88-.68.61-.3,1.28-.45,1.92-.68.22-.08.43-.17.65-.25-.65-.06-1.31-.15-1.89-.36-.55-.2-1.06-.45-1.57-.73-2.4,1-4.77,2.11-7.19,3.19-2.89,1.29-5.87,2.78-8.52,4.51l-.37.24c-.08.16-.16.3-.24.46-2.26,4.39-5.13,8.11-8.85,11.35-.98.86-2.01,1.64-3.06,2.36-.14.24-.29.49-.44.73-.39.63-.82,1.26-1.15,1.92-.38.77-.41,1.48-.41,2.3,0,.54-.82.64-.85.08-.04-.73-.1-1.39.09-2.12.15-.58.42-1.11.72-1.62-.91.55-1.85,1.06-2.81,1.55-.29,2.73-.95,5.69.33,8.2.64,1.25,1.63,2.3,2.88,2.98.49.26.99.39,1.49.47,1.63-1.22,3.52-1.94,5.36-3.01,1.21-.7,2.3-1.53,3.61-2.05,1.52-.6,2.96-1.24,4.33-2.15,2.53-1.68,4.64-3.94,7.36-5.33,1.24-.64,2.57-1.11,3.93-1.46,0-.07.02-.16.12-.19,1.36-.55,2.64-1.22,3.98-1.8,1.08-.47,2.23-.47,3.38-.65,1.14-.18,1.98-.14,3.11-.06,1.89.15,3.3-.58,4.8-1.63,1.83-1.29,3.54-3.16,5.55-4.14,2.51-1.24,4.89-2.9,7.51-3.91,2.35-.9,4.68-1.1,7.16-1.22,2.61-.14,5.18-.28,7.79-.01,2.75.29,5.07-.16,7.74-.72,1-.21,1.91-.3,2.91-.23.4.02.77.02,1.13.02.02,0,.04-.02.06-.02.65-.24,1.38-.3,2.02-.57.59-.34,1.15-.69,1.69-1.1.16-.12.35-.12.54-.08h0s.02-.02.04-.02c.02,0,.04-.01.06-.02.03,0,.06-.02.07-.02.09-.01.19,0,.28,0,.23.01.36.32.26.5-.04.09-.11.16-.16.24,0,.03.02.06,0,.09-.77,3.04-4.62,3.88-6.81,5.69-2.19,1.81-5.79,2.7-8.57,3.3-1.68.35-3.24.98-4.94,1.24-1.51.24-2.8.62-4.22,1.19-3.02,1.2-5.3,3.24-8.1,4.82-1.18.66-2.35,1.38-3.65,1.74-1.29.37-2.34.26-3.65.42-1.1.13-2.2.39-3.31.7-1.58.88-2.84,2.32-4.49,3.17-.93.49-1.79.9-2.8,1.16-1.15.3-1.62,1.01-2.43,1.72-.7.61-1.74,1.24-2.73,1.53.07.11.13.21.22.31.01.01.03.04.04.04.03.03.06.06.1.09.06.06.14.12.21.19.07.07.12.14.17.24,0,0,.01.02.02.04,0,0,0,.01,0,.02.06.09.12.15.18.23.22.29.45.63.42,1.01-.02.24-.32.21-.41.04-.15-.3-.45-.47-.71-.67-.02-.01-.02-.01-.03-.02-.06-.01-.11-.03-.17-.06-.1-.06-.19-.14-.27-.21-.15-.14-.29-.29-.42-.44-.17-.19-.3-.41-.44-.63-.34,0-.68-.01-1.03-.04.14.17.27.34.39.54.14.23.29.47.32.74v.06s.04.09.05.1c.05.11.04.1.1.2.05.08.11.16.16.23,0,0,.09.08.09.09.14.09.23.23.21.4-.03.16-.17.3-.34.31-.44.01-.91-.27-1.19-.61-.02-.02-.02-.02-.02-.03t-.02,0c-.06-.03-.11-.06-.17-.09-.14-.09-.24-.22-.35-.35-.02-.04-.06-.07-.09-.1,0,0-.02-.02-.02-.02h0s-.02-.03-.02-.04c-.12-.14-.24-.28-.37-.42-.05-.06-.1-.12-.16-.18-.01-.02-.04-.05-.06-.07h0c-.12-.15-.26-.28-.38-.42-.06-.06-.1-.14-.16-.21-.59.16-1.15.39-1.79.64-1.44.56-3.04.63-4.56.75-1.74.14-3.25-.12-5-.18-1.84-.07-4.05.19-5.87.7-.61.38-1.22.75-1.87,1.07-1.18.58-2.46,1.12-3.55,1.87-1.08.75-1.94,1.99-2.74,3.02-.65.83-1.01,1.46-.92,2.26,1.37,1.3,3.21,2.22,4.77,3.27,2.05,1.38,4.05,2.74,6.17,4,3.72,2.19,7.52,3.13,11.81,3.27,7.48.26,15.47-.92,22.65-3.09,3.5-1.06,6.73-2.54,9.94-4.24.7-.37,1.46-.6,2.1-1.02.55-.37,1.04-.89,1.55-1.32,1.38-1.16,2.76-2.33,4.13-3.5,2.89-2.45,5.78-4.8,8.75-7.15.05-.04.11-.08.16-.12-.02-.01-.04-.02-.06-.04-.11-.07-.21-.15-.3-.24-.09-.09-.19-.19-.28-.28-.4-.4-.81-.81-1.15-1.27-.19-.25-.1-.6.13-.78.24-.18.62-.11.78.13.29.45.64.87,1,1.28.09.11.19.21.27.31.08.1.14.22.21.33.01.02.02.04.04.06.29-.22.58-.45.87-.67-.44-.19-.82-.62-1.08-.96-.27-.35-.5-.72-.69-1.12-.12-.26-.07-.58.03-.84.11-.26.35-.45.6-.55.26-.11.6-.08.84.03.26.12.44.34.55.6.01.03.03.06.04.09.14.24.29.48.47.7.09.12.19.25.27.37.05.07.1.13.15.2.07.1.09.22.12.34.01.03.03.06.04.09,1.87-1.43,3.72-2.91,5.27-4.66,4.3-4.9,8.58-10.14,10.92-16.29.05-.42.09-.84.12-1.27.15-2.63.48-5.7-1.64-7.74ZM249.19,270.71c-.26.7-1.05.73-1.67.9-.75.21-1.44.62-2.15.95-.77.37-1.54.72-2.32,1.06-.58.26-1.18.36-1.63.84-.24.25-.6-.06-.41-.34.4-.57.95-.82,1.52-1.15.34-.21.67-.44,1.01-.63.37-.22.78-.4,1.18-.6.75-.36,1.49-.82,2.29-1.08.62-.21,1.33-.41,1.98-.35.2.02.27.24.21.39ZM305.65,261.03c-.44-.11-.86-.28-1.29-.44-.43-.15-.87-.29-1.31-.39-.27-.06-.19-.49.07-.42.45.12.9.27,1.34.44.44.17.87.34,1.27.55.13.07.07.29-.07.25ZM311.83,266.1c-.17.22-.45.24-.68.16-.16-.06-.31-.16-.44-.27-.05-.04-.11-.09-.16-.13,0,0-.01-.01-.02-.01-.1-.07-.16-.14-.24-.22,0-.01-.01-.02-.02-.02-.03-.03-.06-.06-.08-.08-.11-.11-.21-.22-.3-.34-.1-.12-.19-.26-.29-.39-.02-.02-.03-.03-.05-.05-.06-.05-.11-.09-.17-.14-.13-.1-.27-.19-.39-.31-.3-.26-.55-.57-.8-.88-.22-.26-.13-.68.1-.89.25-.22.63-.25.9-.02.14.12.27.24.42.35.07.05.14.11.21.16.02.02.06.04.08.06,0,0,0,0,0,0,.32.17.64.31.92.55.31.26.58.57.81.9.15.22.23.45.26.72,0,.06.01.13.02.19v.03c.11.21.09.45-.06.63ZM234.8,312.7c-.35-.21-.72-.31-1.11-.44-.47-.15-.87-.41-1.29-.65-.95-.53-1.94-1-2.93-1.46-.46-.22-.12-.95.34-.72,1.03.49,2.07.98,3.06,1.56.43.25.87.49,1.31.73.32.17.77.36.9.73.06.15-.12.35-.27.25ZM251.49,318.31c-1.15-.08-2.28.07-3.42,0-1.06-.08-2.12-.38-3.16-.57-2.17-.4-4.29-1-6.33-1.82-.3-.12-.09-.58.22-.46,2.08.82,4.24,1.36,6.45,1.75,1.05.18,2.1.44,3.17.52,1.05.07,2.13-.09,3.15.2.25.07.19.41-.07.39ZM316.51,273.65c-.06,0-.12-.01-.18-.02-.06,0-.12-.06-.14-.12-.12-.4-.28-.79-.43-1.17-.16-.39-.37-.73-.57-1.1-.42-.81-1.05-1.5-1.33-2.39-.12-.37.43-.58.57-.21.36.9,1.12,1.53,1.56,2.38.19.37.38.75.5,1.16.12.39.11.77.06,1.16.02,0,.03.02.04.02.14.09.08.29-.09.28Z"/>
  <path class="cls-2" d="M310.55,265.84s0,0,.02.01c.08.05.07.05-.02-.01Z"/>
  <polygon class="cls-2" points="301.36 297.11 301.36 297.1 301.35 297.1 301.35 297.1 301.36 297.11"/>
  <path class="cls-2" d="M289.13,279.15c-3.26.29-6.42.38-9.5,1.58-3.02,1.19-5.31,3.14-7.65,5.33-.75.71-1.53,1.37-2.35,1.98.82-.25,1.64-.48,2.48-.66,1.11-.24,2.19-.05,3.27-.39,1.26-.41,2.59-1.21,3.7-1.94,2.65-1.73,4.93-3.41,7.93-4.53,1.33-.5,2.65-.93,4.08-1.09.66-.07,1.27-.2,1.89-.33-1.27-.05-2.55-.08-3.84.03Z"/>
  <path class="cls-3" d="M311.89,265.46s0,0,0,0c0-.03,0-.03,0-.04,0,0,0,0,0,0,0,0,0,.02,0,.03Z"/>
  <path class="cls-3" d="M310.55,265.84s-.01,0-.01,0c0,0,0,0,0,0,0,0,0,0,.01,0Z"/>
  <polygon class="cls-3" points="311.89 265.47 311.89 265.47 311.89 265.46 311.89 265.47"/>
  <path class="cls-3" d="M311.89,265.47s0,0,0,0c.01.08,0,.03,0,0Z"/>
  <path class="cls-2" d="M218.89,223.37c-1.66.56-2.99,1.06-4.29,2.31-1.11,1.06-2.11,2.23-3.03,3.46-2,2.65-4.42,5.7-5.7,8.77-1.11,2.67-2.24,5.38-2.7,8.26-.48,3.04-.67,6.01-1.75,8.93-1.04,2.83-2.58,5.36-4.43,7.73-1.93,2.47-4.04,4.85-4.75,8.03-.74,3.29-1.4,6.6-1.87,9.95-.05.34-.08.68-.1,1.03,1.36-3.36,2.95-6.67,4.04-10.13.91-2.89,3.32-4.81,5.14-7.17,2.18-2.82,4.12-6.33,4.76-9.87,1.21-6.72,3.72-13.03,8.56-17.96,2.4-2.46,3.95-5.18,5.61-8.14,1.52-2.71,3.86-4.92,5.78-7.34.01-.02.02-.03.04-.04-.34.15-.69.28-1.07.4-1.5.46-2.77,1.3-4.24,1.79Z"/>
  <path class="cls-2" d="M219.08,220.87c.07-.06.15-.12.25-.16,1.16-.48,2.23-1.29,3.32-1.98-1.19.49-2.35,1.03-3.47,1.65-.99.55-1.98,1.1-2.96,1.69.51-.25,1.03-.47,1.59-.66.44-.14.85-.33,1.26-.53Z"/>
  <path class="cls-2" d="M202.52,241.69s-.06-.01-.09-.02c-.43,1.16-.86,2.32-1.13,3.52-.29,1.31-.47,2.67-.73,3.99-.27,1.37-.19,2.76-.37,4.14.28-.84.51-1.7.68-2.58.6-3.04.59-6.1,1.64-9.05Z"/>
  <path class="cls-2" d="M205.84,234.18c1.16-1.91,2.32-3.95,3.65-5.85-1.04,1.38-2.07,2.78-3.27,4.02-1.17,1.21-2.05,2.48-1.96,4.23.01.22.03.43.04.64.46-1.05.96-2.07,1.54-3.04Z"/>
  <path class="cls-2" d="M244.51,248.29c-.32-1.57-.52-3.16-.77-4.75-.56,1.85-1.19,3.68-1.87,5.52-1.42,3.8-3.58,7.41-5.69,10.88-1.81,2.96-3.25,6.15-5.16,9.06-1,1.54-1.77,3.27-2.93,4.69-1.07,1.3-2.1,2.56-3.2,3.84-2.27,2.64-4.91,4.83-7.54,7.13-1.37,1.2-2.81,2.35-4.21,3.5-1.33,1.1-2.92,1.8-4.29,2.81-2.81,2.06-6.17,3.37-9.53,4.24-3.06.79-6.46,1.36-9.66,1.19.72.16,1.43.28,2.09.37,2.02.27,4.09-.05,6.11-.32,1.34-.42,2.63-1.01,3.93-1.57,1.56-.67,3.17-1.18,4.75-1.79,2.86-1.1,5.61-2.34,8.38-3.62,3.08-1.42,5.73-3.37,8.13-5.61.2-.21.4-.4.6-.6.99-.95,1.76-2,2.66-3.01.44-.49.9-.93,1.38-1.38.71-.85,1.41-1.72,2.1-2.6.13-.17.36.03.25.2-.17.27-.35.53-.53.79-2.28,3.43-4.88,6.78-8.05,9.43-1.68,1.41-3.52,2.62-5.56,3.54-3.17,1.42-6.32,2.85-9.59,4.07-.87.32-1.76.66-2.64,1,2.86-.76,5.64-1.77,8.37-2.91,3.04-1.27,6.22-2.56,9.21-4.11.91-.47,1.8-.96,2.66-1.49.17-.11.36-.21.54-.32,2.3-1.44,4.42-3.06,6.32-4.92.39-.46.78-.92,1.19-1.36.45-.48.84-1.01,1.34-1.44.28-.34.55-.7.82-1.06.42-.58.82-1.18,1.21-1.78.91-1.4,1.76-2.85,2.56-4.32,1.01-1.86,1.96-3.75,2.9-5.63,1.59-3.17,3.58-6.13,5.18-9.31.3-.6.62-1.18.92-1.75-.91-2.11-1.94-4.45-2.37-6.66ZM245.13,253.86c-.66,1.54-1.29,3.09-2,4.61-.69,1.46-1.52,2.84-2.3,4.25-.77,1.39-1.56,2.74-2.49,4.05-.47.67-.85,1.36-1.28,2.05-.44.7-.94,1.33-1.3,2.07-.07.14-.28.04-.22-.1.28-.65.65-1.23,1.02-1.83.47-.75.79-1.59,1.25-2.35.83-1.38,1.61-2.78,2.36-4.19.79-1.46,1.63-2.89,2.41-4.36.76-1.44,1.43-2.93,2.23-4.34.11-.19.41-.06.32.14Z"/>
  <path class="cls-2" d="M243.5,220.21c-.02.15-.06.29-.09.44-.06-.22-.09-.44-.11-.66.06.06.12.13.19.19,0,.01,0,.02,0,.02Z"/>
  <path class="cls-2" d="M227.67,278.91c-1.47,1.75-2.99,3.44-4.65,4.98.2-.21.4-.4.6-.6.99-.95,1.76-2,2.66-3.01.44-.49.9-.93,1.38-1.38Z"/>
  <path class="cls-2" d="M233.28,278.8c-.78,1-1.63,1.93-2.53,2.8.39-.46.78-.92,1.19-1.36.45-.48.84-1.01,1.34-1.44Z"/>
  <path class="cls-2" d="M242.56,234c.02-2.18-.15-4.34-.17-6.52-.1.1-.29.09-.35-.06-.14-.32-.41-.52-.59-.81-.12-.21-.16-.44-.24-.67-.01-.05-.03-.09-.05-.14,0-.01,0-.02-.01-.04,0,0,0-.01,0-.02,0,0,0-.01,0-.01-.05-.07-.09-.14-.14-.2-.26-.32-.5-.65-.77-.96-.26-.3-.53-.59-.74-.93-.19-.29-.16-.68.14-.9.29-.21.68-.13.9.14.17.21.2.24.39.41.15.14.3.29.45.43.37.34.73.69.96,1.15.06.13.11.26.14.39.04-.4.11-.81.18-1.21-.1-.5-.14-1-.29-1.54-.17-.62-.51-1.2-.66-1.84-.13-.55-.02-1.22-.18-1.73-.19-.6-.84-1.19-1.24-1.65-.11-.12-.15-.25-.17-.37-.31-.26-.62-.52-.9-.81-.3-.31-.54-.63-.79-.9-1.52.05-3.06-.21-4.58.07-1.91.35-4,1.92-5.28,3.32-2.32,2.52-3.99,5.61-6.22,8.2-1.19,1.39-1.96,3.01-2.75,4.61.02,0,.05,0,.07,0,.26.1.51.19.77.28.12.04.24.09.36.12.07.02.14.05.21.07.02,0,.04.01.06.02h0s.02.01.03.01c.54.15,1.11.29,1.59.59.12.08.18.27.16.4-.01.06-.02.11-.03.17-.05.26-.32.33-.52.21-.21.03-.42.04-.63.03-.32-.01-.63-.12-.94-.22-.53-.16-1.05-.36-1.56-.56-.04-.02-.05-.06-.08-.09-.14.26-.27.52-.42.77.07,0,.14,0,.2,0,.13.02.26.07.38.11,0,0,0,0,.01,0,.04,0,.07.02.11.02.26.07.49.16.73.26.45.18.9.36,1.29.65.21.16.37.38.53.58.09.12.18.24.24.37.07.16.07.3.06.47-.01.21-.21.4-.39.48-.26.11-.47.06-.73.01-.21-.03-.4-.05-.6-.11-.39-.12-.75-.29-1.11-.46-.38-.17-.73-.34-1.05-.6-.06-.05-.13-.1-.19-.15-.07-.06-.13-.14-.2-.21-.04-.04-.08-.07-.12-.11-1.69,2.46-3.86,4.36-5.64,6.74-1.98,2.63-3.24,5.75-4.4,8.81-.44,1.16-.69,2.36-.92,3.56,1.29-3.09,2.57-6.42,4.67-9.01.14-.17.45,0,.34.21-1.93,3.49-3.57,7.11-4.98,10.82-.67,1.76-1,3.68-1.71,5.41-.3.73-.77,1.34-1.2,2-.6.92-1.03,1.93-1.62,2.86-1.02,1.61-2.41,2.95-3.49,4.51-1.12,1.61-2.02,3.2-2.88,4.94-.82,1.67-1.69,3.27-2.47,4.96-.77,1.67-1.56,3.29-2.4,4.9-.09.17-.34.06-.27-.12.8-1.85,1.57-3.71,2.33-5.58.67-1.64,1.59-3.13,2.3-4.75.72-1.62,1.51-3.07,2.45-4.62.34-.57.73-1.1,1.13-1.62-.62.65-1.25,1.3-1.78,2-.82,1.09-1.12,2.41-1.71,3.62-1.31,2.72-2.69,5.38-3.9,8.15-.42.96-1.05,2.1-1.57,3.27,0,.06,0,.11-.01.16-.11.98.09,2-.26,2.92-.13.34-.39.47-.65.49,0,.09-.01.18,0,.27.06.6-.88.7-.93.09-.02-.32-.02-.64,0-.96-.07-.21-.06-.44.08-.7.03-.24.07-.47.12-.71.02-.63,0-1.54.01-1.67.03-.34.04-.68.06-1.01-.19-1.47-.21-2.99-.11-4.42.05-.63.18-1.25.3-1.87.14-.71.09-1.38.14-2.08.06-.85.29-1.84.54-2.66.42-1.36,1.03-2.66,1.61-3.98.3-.89.64-1.76,1.05-2.61,1.21-2.5,2.94-4.3,4.52-6.54.04-.06.07-.11.11-.17.11-.26.21-.52.33-.76.35-.71.9-1.28,1.29-1.95.05-.09.09-.17.14-.26.09-.43.16-.86.25-1.31.52-2.67.07-5.33.94-7.93.43-1.27.65-2.6,1.16-3.84.37-.89.81-1.72,1.27-2.55h-.01c-.21-.04-.42-.07-.63-.09h-.2s-.09,0-.12.01c-.02,0-.04,0-.07.01t-.02,0c-.2.04-.39-.03-.47-.22-.07-.18.02-.45.22-.5.44-.12.9-.07,1.34,0,.12.02.25.04.37.06.03-.06.06-.11.09-.16.07-.14.27-.05.22.1-.01.04-.02.07-.04.11,0,0,0,0,0,0,.03,0,.06.01.09.02.12-.32.24-.63.37-.95-.02,0-.04-.02-.07-.02-.03.01-.07.03-.11.03-.06,0-.12,0-.19,0h-.04c-.16,0-.31,0-.47.02-.15,0-.29.01-.44.01-.24,0-.44-.07-.67-.14-.4-.13-.77-.24-1.19-.34-.43-.11-.87-.17-1.29-.3-.29-.09-.49-.28-.49-.6,0-.29.23-.53.52-.57.57-.07,1.1.04,1.64.17.24.06.49.12.73.2.15.04.3.09.45.13.06.02.11.04.16.06,0,0,.01,0,.02,0h0c.12.03.25.06.37.1t.02.01s.07.02.11.03c.2.06.4.11.6.17.08.03.16.06.24.09.06.03.12.06.17.11.06.04.09.1.12.16,0,0,.02,0,.04.02.01-.03.02-.06.04-.09,0-.27.01-.55,0-.82-.04-.76-.16-1.52-.12-2.28.06-1.31.59-2.46,1.37-3.5.95-1.26,1.94-2.55,2.94-3.78,1.08-1.33,2.08-2.76,3.21-4.05,2.13-2.45,5.06-3.95,7.84-5.5,2.6-1.44,5.28-2.38,8.17-2.97.07-.04.16-.09.23-.13.39-.24.76-.49,1.14-.73.82-.93,1.61-1.89,2.44-2.81-.03-.61.12-1.24.04-1.84-.08-.09-.17-.19-.22-.32-.12-.32-.09-.54-.3-.85-.72-1.08-2.31-1.28-3.37-1.89-1.44-.81-3.25-1.12-4.88-1.28-1.66-.16-3.34.05-5,.02-.82-.01-1.43.39-2.18.62-.83.26-1.69.35-2.52.64-.7.25-1.29.57-1.95.9-.59.29-1.19.41-1.77.71-.68.34-1.33.76-2.03,1.03-1.01.88-1.94,1.89-2.91,2.82-1.83,1.75-3.68,3.54-5.25,5.55-3.04,3.9-6.38,7.66-9.1,11.8-2.67,4.05-4.3,8.61-5.89,13.17-1.62,4.64-3.22,9.4-4.07,14.25-.77,4.41-1.46,9.01-1.11,13.49.33,4.28.6,8.82,1.51,13.02.48,2.2,1.01,4.88,2.58,6.59.47.52,1.08.85,1.58,1.33.55.54.9,1.24,1.41,1.8.82.91,1.96,1.48,3.18,1.87.02-.15.14-.29.33-.29,4.16.15,8.74-1.11,12.68-2.35,1.95-.62,4.02-1.55,5.73-2.69-.1.02-.19.04-.3,0-.07-.02-.12-.05-.19-.08-.09-.04-.17-.09-.26-.15-.02-.01-.02,0-.02-.01-.02-.01-.06-.03-.08-.04-.1-.06-.2-.12-.3-.17-.21-.11-.43-.19-.65-.27-.44-.17-.88-.32-1.29-.56-.24-.14-.35-.37-.24-.63.09-.23.42-.36.63-.24.47.26.99.4,1.49.59.22.07.43.16.63.27.24.13.5.26.71.45.14.13.17.29.24.46.01.04.02.09.02.13,1.47-1,3.04-1.98,4.43-3.07,2.64-2.09,5.31-4.36,7.7-6.73,2.17-2.16,4.43-4.27,6.13-6.83,1.94-2.91,3.61-5.93,5.31-9.01,1.66-2.98,3.55-5.87,5.13-8.91,1.7-3.29,3.32-6.4,4.54-9.91.8-2.31,1.55-4.69,2.16-7.09-.24-1.66-.41-3.39-.4-4.95ZM216.84,209.63c1.53-.02,3.08.16,4.61.31.7.07,1.4.07,2.1.22.63.14,1.44.22,1.91.7.1.1.06.26-.09.29-.35.06-.74.13-1.1.11-.34-.02-.68-.12-1.02-.16-.67-.08-1.32-.05-1.99-.08-1.49-.07-2.96-.47-4.46-.55-.48-.02-.45-.84.03-.85ZM199.33,218.79c.44-.58,1-.98,1.56-1.44.61-.5,1.18-1,1.85-1.43,1.29-.82,2.6-1.52,4.01-2.08,1.53-.62,2.79-1.72,4.23-2.5.7-.38,1.53-.75,2.31-.9.39-.07.7-.16,1.06-.3.25-.09.44-.16.7-.15.26,0,.4.3.19.48-.5.41-.68.76-1.37.86-.85.12-1.69.34-2.47.7-.75.35-1.35.91-2.06,1.33-.59.35-1.2.7-1.82,1-.69.34-1.44.53-2.14.87-.67.34-1.29.74-1.95,1.09-.72.39-1.38.79-2.05,1.27-.62.46-1.28.82-1.81,1.4-.14.16-.38-.04-.25-.2ZM179.96,268.52c.19-.62.49-1.21.72-1.82.09-.24.5-.11.43.13-.15.59-.38,1.16-.51,1.76-.14.63-.26,1.31-.3,1.95-.04.64.02,1.28-.07,1.91-.04.25-.06.49-.16.72-.14.32-.14.64-.14.98,0,.11-.14.12-.16.02-.06-.29-.16-.59-.14-.89,0-.11.05-.21.06-.32.02-.17-.02-.35-.04-.52-.02-.34,0-.67,0-1.01,0-.31-.04-.62-.02-.94.03-.67.16-1.32.35-1.96ZM183.85,291.9c-.38-.5-.92-.78-1.36-1.21-.37-.37-.66-.8-.98-1.21-.3-.39-.63-.87-.71-1.36-.08-.47.13-.88.16-1.34.04-.57-.11-1.17-.15-1.74-.06-.63-.17-1.2-.41-1.79-.42-1.03-.74-2.07-.86-3.18-.02-.27.38-.31.43-.04.19,1.18.67,2.2,1.15,3.29.41.93.52,2.02.65,3.02.07.52-.13,1.01-.07,1.51.07.51.61,1.03.87,1.47.49.83,1.16,1.56,1.46,2.5.03.11-.11.2-.19.1ZM185.16,249.4c-.15.67-.22,1.36-.42,2.03-.19.63-.49,1.21-.75,1.82-.29.67-.58,1.34-.84,2.02-.25.63-.35,1.31-.62,1.94-.09.22-.42.07-.34-.16.25-.63.33-1.31.56-1.96.25-.68.52-1.37.78-2.05.26-.67.61-1.31.84-2,.22-.66.37-1.34.59-2.01.49-1.46,1-2.94,1.66-4.33.63-1.3,1.39-2.53,1.92-3.88.03-.08.16-.02.12.06-.52,1.36-1.28,2.59-1.89,3.9-.69,1.47-1.26,3.04-1.61,4.62ZM188.02,293.7c-.06.22-.09.44-.1.67,0,.1-.13.14-.18.04-.06-.12-.08-.23-.09-.36,0-.12,0-.24.02-.36,0-.11.02-.23.03-.34v-.04h0v-.09c0-.06,0-.12-.01-.18-.02-.12.08-.23.2-.25.11-.02.25.09.25.21,0,.24-.06.47-.12.71ZM207.53,288.88c-.18-.06-.35-.19-.52-.27-.17-.09-.37-.15-.54-.25-.33-.2-.66-.38-1-.55-.7-.34-1.43-.65-2.12-1.03-.19-.11-.3-.32-.21-.55.09-.19.35-.31.55-.21.72.4,1.47.7,2.21,1.06.37.18.79.35,1.11.62.16.13.3.3.44.45.13.15.27.29.34.48.07.17-.11.3-.27.26ZM238.51,220.52c-.19,0-.35-.16-.49-.27-.14-.11-.28-.21-.41-.34-.24-.24-.48-.49-.75-.71-.6-.49-1.2-.98-1.8-1.47-.4-.33.1-.95.5-.62.61.49,1.23.98,1.84,1.47.29.24.58.5.82.78.11.12.21.26.31.39.12.15.24.27.28.47.04.19-.15.3-.3.29Z"/>
  <polygon class="cls-2" points="203.19 239.92 203.18 239.92 203.19 239.92 203.19 239.92"/>
  <path class="cls-3" d="M201.32,241.5c.07,0-.03,0,0,0h0Z"/>
  <path class="cls-3" d="M203.08,239.96s.01,0,.02,0c.03-.01.06-.03.08-.04-.03.01-.07.03-.1.04Z"/>
  <path class="cls-3" d="M221.07,231.93s-.02,0-.04-.01c-.01,0,0,0,.04.01Z"/>
  <path class="cls-3" d="M201.74,238.64s0,0,0,0c-.04,0-.04-.01,0,0Z"/>
  <path class="cls-3" d="M241.13,225.74s0,.01,0,.02c.02.03.02.03,0-.02Z"/>
  <path class="cls-2" d="M278.31,260.53s0,0,0,0c0,0,0,0,0,0Z"/>
  <path class="cls-2" d="M310.19,206.55c-.52-3.11-1.28-6.15-2.16-9.19-.43-1.51-1.34-2.78-1.77-4.31-.4-1.4-1.19-2.34-1.93-3.56-.65-1.07-.96-2.18-1.67-3.24-.83-1.23-1.81-2.34-2.62-3.58-1.87-2.84-4.12-6.73-7.7-7.57,2.81,2.2,5.1,4.96,6.74,8.22.21.41.39.83.55,1.25,1.33,2.15,2.58,4.35,3.62,6.65,1.1,2.43,1.36,4.95,1.63,7.58.27,2.65.85,5.31,1.01,7.96.02.26-.4.37-.47.1-.57-2.44-.93-4.91-1.47-7.35-.33-1.49-.63-3.06-1.04-4.58.54,3.38.66,6.93,1.74,10.15,1,2.98,2.04,6.36,1.98,9.52-.07,3.93-.36,7.52-1.1,11.39-.71,3.74-.82,7.56-1.43,11.33-.62,3.81-2.83,7.42-4.77,10.68-1.1,1.85-2.34,3.69-3.1,5.71-.2.53-.41,1.06-.62,1.58-.34.83-.72,1.64-1.18,2.41-.12.21-.24.42-.37.62-1.97,2.89-4.93,5.38-7.97,7.05-2.63,1.44-5.81,3.03-8.92,3.52.2.12.39.22.59.33,1.37.22,3.21-.67,4.34-1.1,1.81-.69,3.5-1.54,5.21-2.45,1.76-.93,3.58-1.78,5.19-2.95.68-.49,1.33-1.03,2.01-1.52.48-.35.91-.71,1.51-.8.26-.04.33.36.09.44-.57.2-.77.64-1.13,1.06-.25.3-.59.53-.88.79-.75.69-1.49,1.32-2.33,1.91-1.77,1.24-3.66,2.25-5.56,3.26-1.78.95-3.63,1.6-5.59,2.08,0,0,0,0-.01,0,.47-.04.93-.11,1.34-.23,3.12-.91,6.05-2.53,8.85-4.12,1.48-.84,3.09-1.53,4.42-2.61,1.33-1.08,2.38-2.53,3.31-3.96.27-.41.52-.83.78-1.24.49-.79.97-1.59,1.43-2.4,1.01-1.78,1.95-3.61,2.77-5.48.94-2.13,1.6-4.33,2.3-6.52-.95,1.96-2.09,3.81-3.46,5.48-.33.4-.86-.1-.59-.5,1.15-1.76,2.04-3.64,2.73-5.64.62-1.8,1.4-3.56,1.94-5.38.23-.76.46-1.52.74-2.27.42-1.09.65-2.22.96-3.36.47-1.75,1.26-3.46,1.3-5.3,0-.24.36-.36.44-.09.5,1.74-.11,3.69-.46,5.41-.24,1.21-.49,2.4-.77,3.59.37-1.12.73-2.25,1.04-3.41.72-2.69.41-5.6,1.07-8.29,1.38-5.59.34-11.52-.59-17.09Z"/>
  <path class="cls-2" d="M287.44,262.9c1.57-1.02,3.19-2.51,4.45-3.91.35-.39.65-.8.93-1.23.49-.76.87-1.56,1.22-2.39.33-.79.62-1.6.95-2.41,1.24-3.06,3.25-5.74,4.71-8.7-.05.01-.09.03-.14.04-.12.03-.3.03-.42.08,0,0,0,0,0,0-.05.01-.1.03-.15.04-.08.03-.16.06-.23.09,0,0-.02,0-.03.02-.02.01-.06.03-.07.04-.1.05-.19.1-.29.15-.19.1-.38.19-.59.25-.4.12-.81.18-1.22.23-.41.05-.76-.3-.81-.68-.05-.42.3-.75.68-.81.18-.03.39-.03.56-.09,0,0,0,0,0,0,.05-.01.09-.02.14-.04.09-.03.18-.06.27-.09.08-.03.17-.06.24-.11,0,0,0,0,.02-.01.04-.02.08-.04.12-.07.18-.1.37-.2.56-.28.22-.09.45-.14.68-.19.24-.05.47-.04.72-.02.19.01.39.02.58.08.01,0,.03,0,.04.01.74-1.58,1.47-3.18,1.89-4.87.4-1.63.49-3.4.74-5.06.27-1.81.09-3.63.38-5.44.28-1.74.67-3.47,1.01-5.2.62-3.16.67-6.95.04-10.08-.33-1.64-.46-3.29-.93-4.91-.4-1.38-1-2.59-1.27-4-.64-3.34-1.03-6.71-1.75-10.03-.35-1.64-1.21-3.26-1.79-4.83-.6-1.61-.83-3.22-1.6-4.8-1.79-3.66-4.54-6.33-7.59-8.93-.3,0-.6,0-.9.01-.01,0-.02,0-.03,0-.06,0-.12,0-.18,0-1.73.1-3.44.5-4.91,1.25-.2.11-.4.22-.61.32-.73.45-1.31.96-1.81,1.52-.83,2.08-1.5,4.24-1.59,6.49-.08,1.87.02,3.72-.15,5.59-.2,2.24-.19,4.43-.16,6.67.01,1.03-.03,2.07.11,3.09.05.38.16.75.26,1.12,1.24-.53,2.49-1.02,3.83-1.2.63-.08,1.24-.04,1.85-.13.47-.06,1.07-.13,1.48-.38.28-.17.56.16.37.41-.34.46-.9.68-1.42.87-.22.08-.49.15-.68.22-.17.07-.32.17-.49.22-.19.05-.38.09-.57.13-1.37.29-2.71.68-4.05,1.1.05.2.12.4.15.61,0,.02,0,.05,0,.08.12-.05.23-.11.35-.15.31-.11.63-.17.95-.26.15-.04.3-.09.45-.14.07-.03.14-.06.22-.09.09-.03.19-.05.28-.04,0,0,0,0,.01,0,0,0,0,0,.02,0,0,0,.02,0,.02,0,.02,0,.03,0,0,0,.34.01.58.27.54.62-.05.47-.53.79-.94.94-.15.06-.31.1-.46.14-.13.03-.25.06-.38.09-.04,0-.08.02-.12.02,0,0-.02,0-.02,0-.02,0-.05.01-.06.01-.04,0-.08.02-.11.03-.07.02-.14.04-.21.07-.16.05-.32.11-.48.17,0,.35-.02.71.02,1.06.07.62.34,1.18.36,1.81.04,1.26-.36,2.68-.74,3.87-.43,1.34-.89,2.62-1.25,3.95.03.11.03.24,0,.37-.4,1.82-.46,3.66-.92,5.47-.41,1.6-.77,3.21-1.15,4.82-.21,2.12-.35,4.26-1,6.32-.19.59-.37,1.17-.56,1.74-.13,1.43-.23,2.86-.52,4.27-.4,1.91-.96,3.77-1.64,5.59-.66,2.32-1.76,4.52-1.84,6.88-.07,1.89-.42,3.56-.19,5.48.11.89.19,1.79.33,2.68.12.76.28,1.52.54,2.24.03.08.05.16.08.24.62,1.62,1.36,3.22,2.23,4.72.49.85,1.22,1.59,2.04,2.24,1.8-.51,3.59-1.28,5.33-1.93,2.16-.81,4.35-1.88,6.29-3.14ZM300.5,216.85c.1.4.03.77.07,1.17.04.4.25.77.29,1.17.03.31-.05.62-.05.93,0,.41.09.81.08,1.22-.02.87.03,1.74,0,2.61-.04.92-.18,1.84-.23,2.76-.05.85-.23,1.56-.43,2.38-.22.89-.38,1.8-.67,2.67-.25.77-.83,1.42-1,2.21-.06.28-.43.24-.48-.02-.14-.7.05-1.36.17-2.06.16-.93.29-1.86.47-2.79.17-.88.37-1.65.4-2.55.03-.85.17-1.69.23-2.54.06-.86,0-1.71.05-2.57.02-.45-.06-.88-.05-1.33,0-.36.1-.7.06-1.05-.04-.35-.16-.67-.16-1.03,0-.46.07-.83-.02-1.3-.15-.84.03-1.7,0-2.55-.02-.62.88-.7.96-.08.11.93.08,1.83.3,2.74ZM299.3,197.04c.4.67.64,1.36.74,2.13.05.38.06.77.1,1.15.05.41.18.81.2,1.23.02.47-.05.94-.08,1.41-.03.5-.05,1-.1,1.49-.08.97-.2,1.91-.37,2.87-.03.17-.28.19-.33.03-.3-.9-.33-1.81-.27-2.74.06-.91.13-1.82.19-2.74.03-.42-.07-.83-.13-1.25-.05-.38-.05-.76-.08-1.14-.05-.71-.21-1.35-.56-1.97-.26-.46.41-.93.68-.47ZM293.23,184.43c.44.26.99.45,1.39.77.36.3.47.69.7,1.08.26.43.48.94.81,1.32.33.38.66.71.9,1.15.48.88.7,1.8.9,2.78.1.47.26.91.36,1.38.04.2.07.4.05.61-.02.21-.1.4-.07.62.03.18-.2.26-.33.17-.32-.24-.41-.58-.6-.91-.23-.4-.51-.75-.7-1.18-.36-.82-.55-1.72-.94-2.52-.22-.45-.56-.8-.82-1.23-.26-.43-.38-.91-.57-1.38-.16-.39-.23-.85-.47-1.18-.28-.4-.59-.75-.91-1.12-.16-.18.1-.47.3-.35ZM293.4,246.05c.37-.04.73-.07,1.1-.1.18-.02.36-.04.54-.07.04,0,.09-.01.13-.02,0,0,.05-.01.08-.02.03,0,.07-.02.07-.02.04-.01.09-.02.13-.03.18-.05.35-.12.53-.17.19-.06.4-.09.6-.12.38-.05.76.03,1.12.16.23.09.28.48.05.6-.31.17-.61.33-.98.47-.36.14-.72.25-1.1.32-.71.15-1.45.12-2.17.16-.33.02-.59-.21-.63-.54-.04-.32.23-.6.54-.63ZM286.42,179.8c-.74.13-1.37.52-2.01.88-.43.23-.92.36-1.31.65-.39.28-.69.7-1,1.07-.35.43-1.09-.03-.83-.53.28-.53.59-1.03.95-1.51.39-.5.85-.79,1.37-1.12.83-.53,1.75-1.12,2.79-.88,1.02.23,1.68.95,2.32,1.72.4.49.95.85,1.42,1.27.42.38.93.8,1.2,1.31.07.13-.07.27-.2.18-.44-.33-.78-.8-1.16-1.18-.35-.35-.71-.72-1.1-1.04-.65-.54-1.58-.95-2.44-.81Z"/>
  <path class="cls-2" d="M277.65,202.53c-.23-.88-.51-1.69-.63-2.6-.53-4.06.12-8.07.28-12.11,0-.14,0-.28,0-.42-.42.56-.84,1.12-1.19,1.72-1.09,1.84-.87,3.81-.94,5.87-.11,2.9-.99,5.71-1.21,8.61-.1,1.3-.22,2.77-.45,4.2-.29,3.41-.6,6.98-2.11,10.1-.18.37-.51.5-.84.48-.06.81-.1,1.63-.15,2.46-.04.73-.1,1.45-.18,2.15.18-.82.31-1.66.49-2.48.26-1.15.65-2.05,1.26-2.84.02-.06.04-.12.05-.18.04-.14.14-.2.25-.22.31-.35.67-.68,1.1-1,.21-.15.52.1.39.33-.41.76-.99,1.39-1.41,2.14-.39,1.45-.85,2.87-.99,4.37-.17,1.82-.37,3.64-.37,5.47,0,.79-.19,1.55-.27,2.33-.09.85-.03,1.71-.15,2.56-.13.9-.39,1.79-.62,2.67-.19.72-.42,1.37-.9,1.96-.15.18-.41-.01-.33-.21.36-.92.32-1.88.47-2.83.15-.94.35-1.81.33-2.77-.03-1.56.16-3.08.21-4.64,0-.25.05-.5.06-.76-.11.28-.22.56-.33.85-.14.66-.29,1.33-.46,2.01-.41,1.58-1.2,3.14-1.85,4.72-.19,1.16-.23,2.34-.15,3.51.01.22-.33.25-.35.03-.06-.76-.04-1.51.01-2.25-.28.83-.5,1.67-.55,2.53-.08,1.35-.06,2.7-.21,4.05-.15,1.35-.58,2.62-.78,3.96-.2,1.35-.07,2.58.24,3.77-.09-.75-.05-1.53-.13-2.28-.05-.47-.12-.95-.05-1.42.06-.39.23-.75.28-1.15.09-.66.04-1.32.44-1.88-.01-.03-.03-.05-.04-.08-.06-.11.07-.26.18-.16.05.04.09.08.14.12.05.05.06.12.04.18-.24.71.01,1.37-.03,2.1-.02.36-.14.71-.12,1.07.02.42.08.85.11,1.27.07.82-.02,1.64-.01,2.47,0,.8.15,1.63.43,2.38.04.12-.06.21-.16.22.36.75.74,1.49,1.13,2.24-.03-.62-.06-1.24-.11-1.85-.13-1.58-.37-3.18,0-4.75.4-1.64,1.41-3.13,2.05-4.69.46-1.12.84-2.26,1.2-3.41.09-.83.19-1.66.42-2.48.16-.58.41-1.05.52-1.64.13-.7.06-.97.37-1.65.15-.33.28-.66.41-.99.52-2.68.93-5.39,1.55-8.04.37-1.58.71-3.19,1.06-4.8.72-3.4,1.62-6.76,2.55-10.12.26-.96.5-1.96.57-2.95.06-.83-.23-1.47-.32-2.29-.11-1,.03-1.94-.22-2.93ZM276.02,207.49c-.46,1.57-.88,3.14-1.04,4.76-.03.26-.42.18-.39-.07.13-1.6.51-3.16.94-4.71.43-1.55.75-3.09.91-4.7.02-.16.24-.13.26.01.29,1.59-.23,3.19-.68,4.7Z"/>
  <path class="cls-2" d="M275.98,184.96c-.03.18-.06.36-.09.54.07-.09.13-.18.2-.28-.04-.08-.08-.17-.11-.26Z"/>
  <path class="cls-2" d="M278.32,171.51c-.47-.07-.93-.14-1.39-.24-.35-.07-.71-.08-1.06-.11-1.87.09-3.88.78-5.56,1.18-.13.03-.27.07-.4.11-2.15,1.1-4.09,2.74-5.59,4.46-1.39,1.59-2.63,3.29-3.75,5.06-.39.73-.78,1.47-1.22,2.17-.2.32-.4.63-.6.93-2.5,4.6-4.42,9.55-6.27,14.44-1.69,4.46-2.83,9.05-4.31,13.57-.67,2.05-1.31,4.08-1.76,6.17-.08.37-.16.73-.23,1.1-.24,1.36-.66,2.7-.93,4.05-.05.27-.1.55-.14.82-.07.44-.11.9-.12,1.34-.03,3.29.21,6.54.52,9.79.1,1.01.21,2.02.31,3.04.12,1.23.4,2.43.65,3.63.09.46.19.92.27,1.39.09.47.16.95.21,1.43.21,2.02.85,3.62,1.56,5.43.07.19.15.38.23.58.39,1,.75,1.95,1.18,2.87.59,1.27,1.29,2.45,2.35,3.54,1.45,1.47,3.07,2.84,4.83,3.92.24.14.47.28.72.41.88.48,1.93.74,3,.89.95.13,1.92.17,2.81.18.92.01,1.91.09,2.79-.24.5-.19.81-.5,1.15-.81-.01-.27-.02-.55-.03-.83-.04-.78-.09-1.56-.21-2.33,0-.07-.01-.14-.02-.21-.34-2.1-1.72-3.66-2.58-5.55-1.39-3.06-1.79-6.11-1.06-9.38.15-.69.23-1.4.28-2.11-.16.04-.32.07-.49.12-.59.18-1.16.39-1.76.54-.2.05-.3-.25-.11-.3.55-.14,1.08-.34,1.61-.51.25-.08.5-.16.76-.22.02-.31.04-.63.05-.95-.01.01-.01.02-.02.03-.11.1-.24.15-.38.19-.17.06-.35.11-.53.14-.27.05-.54.1-.82.14-.55.09-1.11.16-1.67.19-.39.02-.7-.26-.75-.63-.04-.38.27-.71.63-.75.54-.06,1.05-.17,1.58-.26.02,0,.11-.02.14-.02.06-.02.13-.03.19-.04.13-.03.26-.06.39-.09.19-.04.37-.07.57-.09.21-.02.39.04.55.15.05.02.09.04.14.07.06-1.37.17-2.72.62-3.98,1.09-3.02,2.08-5.91,2.86-9.02.45-1.84.65-3.5.77-5.39.1-1.53,0-3.07.26-4.59.23-1.42.42-2.99.89-4.35.14-.39.3-.76.47-1.13-.4.08-.8.16-1.19.22-.44.07-.93.11-1.36.02-.39-.07-.78-.17-1.17-.26-.24-.06-.32-.45-.04-.52.39-.09.77-.17,1.16-.28.22-.06.45-.09.68-.12.24-.04.41-.09.63-.12.63-.11,1.26-.18,1.89-.26.16-.39.3-.78.4-1.22.03-.12.04-.24.07-.37-.37.04-.73,0-1.1.02-.38.03-.73.27-1.13.34-.13.02-.33.08-.5.14-.18.06-.36.12-.54.18-.21.07-.42.1-.63.13-.2.02-.39.05-.59,0-.22-.06-.36-.4-.11-.54.18-.1.37-.16.56-.25.19-.08.35-.18.54-.26.36-.14.72-.29,1.09-.39.39-.1.84-.24,1.29-.21,0,0,.01,0,.02,0-.04-.04-.07-.08-.11-.13-.05-.06-.1-.13-.14-.2-.11-.17-.14-.35-.07-.54.02-.08.06-.16.11-.22.07-.09.16-.15.27-.19.09-.04.18-.06.27-.09.19-.06.36-.1.57-.07,0,0,.02,0,.03,0,.02,0,.05,0,.07,0,.09,0,.17.01.24.02.07,0,.16,0,.23-.01,0-.43,0-.86-.03-1.29-.07-1.01-.26-2.03-.16-3.04.12-1.23.42-2.36.34-3.62-.14-1.93-.53-3.73.04-5.63.56-1.88,1.28-3.67,1.72-5.59.43-1.87.29-3.75,1.18-5.52.89-1.77,1.84-3.58,3.34-4.92.82-.72,1.71-1.36,2.69-1.84.11-.05.24-.09.37-.14.78-.54,1.64-.98,2.54-1.32-1.64-.73-3.32-1.24-5.07-1.89ZM257.26,196.91c-.57,1.25-1.31,2.45-1.97,3.65-1.38,2.53-1.69,5.08-2.29,7.87-.58,2.69-1.87,5.46-2.91,8-.79,1.91-1.38,3.99-1.79,6.06-.13.65-.25,1.29-.35,1.93-.06.38-.6.26-.58-.11.06-.98.17-2,.32-3.01.25-1.59.65-3.17,1.24-4.62,1.11-2.64,2.52-5.36,3.29-8.12.67-2.4.71-4.95,1.74-7.24.6-1.33,1.28-2.62,1.89-3.95.28-.6.47-1.26.78-1.85.2-.37.59-.73.67-1.15.07-.4.63-.35.68.03.12.82-.42,1.77-.74,2.49ZM264.93,181.1c-.19.33-.4.65-.47,1.03-.05.28-.06.53-.17.79-.26.61-.7,1.2-1.08,1.73-.41.58-.69,1.23-1.09,1.82-.42.62-.98,1.1-1.51,1.62-.56.55-1.4-.15-.93-.8.43-.59.86-1.15,1.18-1.81.31-.64.65-1.33,1.11-1.89.43-.53,1.09-.81,1.54-1.33.17-.19.29-.43.47-.62.25-.25.57-.44.85-.65.06-.04.16.03.12.1ZM275.29,173.91c-.21.04-.35.26-.52.36-.24.15-.49.14-.75.22-.38.12-.81.55-1.11.84-.24.22-.45.46-.7.67-.27.24-.6.38-.92.54-.62.3-1.23.6-1.82.96-.62.39-1.23-.5-.63-.92.65-.47,1.35-.85,2.05-1.24.59-.33.96-.9,1.48-1.31.47-.37,1.1-.91,1.74-.78.12.02.24.09.37.08.11-.01.22-.07.34-.09.27-.05.5.03.66.28.11.17,0,.36-.19.39Z"/>
  <path class="cls-5" d="M203.08,239.96s.01,0,.01,0c.03-.01.06-.03.09-.04-.03.01-.07.02-.1.04Z"/>
  <path class="cls-2" d="M323.2,278.1c.03-.75.12-1.54.22-2.37.25-2.09.53-4.47-.16-6.99-.49-1.77-1.25-3.37-2.19-4.64-.78-1.04-1.71-1.7-2.45-2.22-.33-.23-.63-.45-.86-.65-2.68-2.41-5.17-4.34-7.61-5.89-.64-.41-1.29-.77-1.96-1.09,1.42-3,2.65-6.23,3.65-9.63.43-1.46.96-2.94,1.47-4.38.7-1.99,1.43-4.04,1.98-6.2.48-1.87.64-3.7.8-5.46.13-1.5.26-2.93.57-4.23.46-1.88.47-3.66.42-5.15-.02-.57,0-1.17.04-1.81.06-1.19.11-2.42-.1-3.79-.28-1.88-.63-3.74-.97-5.53-.33-1.73-.66-3.52-.92-5.28-.59-3.92-1.99-7.41-3.27-10.32-.19-.44-.36-.9-.53-1.38-.37-1.05-.79-2.25-1.63-3.5-.28-.41-.52-.92-.78-1.46-.36-.74-.76-1.58-1.36-2.42-.44-.63-.9-1.25-1.38-1.9-.78-1.06-1.52-2.05-2.18-3.09-1.11-1.74-2.67-3.98-4.82-5.77-1.74-1.45-3.52-2.79-6.29-3.26-.96-.16-1.96-.23-3.15-.23-.38,0-.75,0-1.13.02-.26-.22-.54-.47-.88-.72-1.05-.77-2.24-1.4-3.43-1.82-1.09-.39-2.13-.49-2.97-.57h-.08c-.19-.03-.38-.05-.57-.07-.5-.06-1.07-.22-1.68-.4-.5-.14-1.02-.29-1.58-.41-.88-.19-1.8-.29-2.71-.29-3.74,0-7.72,1.62-11.51,4.69-8.14,6.59-12.06,16.83-15.53,25.86-1.28,3.34-2.3,6.73-3.29,10.02-.51,1.69-1.03,3.44-1.59,5.15-1.49-1.09-3.1-1.9-4.88-2.44-.75-.23-1.69-.52-2.74-.6-.14-.01-.28-.02-.42-.02-.09,0-.18,0-.27,0-.13-.35-.3-.75-.55-1.15l-.14-.25c-.44-.76-1.04-1.79-2.35-2.61-.68-.42-1.35-.68-1.9-.88l-.06-.02c-.2-.08-.4-.15-.58-.23-1.28-.62-2.65-.94-3.82-1.16-.9-.17-1.83-.26-2.83-.26-.37,0-.75.01-1.18.03-.81-.1-1.63-.15-2.44-.15-1.02,0-2.04.08-3.04.23-2.16.31-4.19.97-6.15,1.61l-.86.28c-.19.06-.4.12-.6.18-.69.2-1.55.44-2.4.9-1.26.69-2.25,1.62-3.13,2.45l-.05.04c-.26.24-.51.48-.77.71-2.13,1.86-3.83,3.45-5.34,5-1.22,1.25-2.24,2.56-3.24,3.84-.58.75-1.13,1.46-1.71,2.13l-1.04,1.21c-3.11,3.62-6.32,7.36-8.52,11.94-2.46,5.1-4.16,10.56-5.7,15.72-1.34,4.49-2.91,10.45-3.19,16.72-.03.58-.06,1.15-.1,1.73-.11,1.83-.23,3.73-.06,5.73.11,1.31.27,2.61.43,3.87.15,1.22.31,2.48.41,3.7v.15c.4,4.66.88,10.45,4.11,14.71.58.76,1.22,1.28,1.75,1.71.12.1.25.2.36.3.19.17.41.46.68.81.28.37.63.84,1.06,1.28,2.09,2.16,4.79,2.99,7.16,3.51,1.94.43,3.98.64,6.07.64,8.05,0,15.86-3.16,22.86-6.18.28,3.02,1.79,5.95,4.13,7.96-1.1,1.61-2.1,3.79-1.54,6.41.56,2.61,2.15,4.78,3.55,6.7.23.32.46.63.67.93,2.12,2.99,4.56,4.9,7.91,6.2,1.49.57,2.92,1.32,4.46,2.12,1.55.8,3.14,1.63,4.89,2.32,3.07,1.21,6.62,2.08,10.85,2.65,1.02.14,2.09.21,3.27.21,2.73,0,5.49-.38,7.93-.72,0,0,.06,0,.07,0,.73-.1,1.46-.23,2.2-.36.77-.13,1.5-.26,2.25-.36,1.39-.19,2.55-.6,3.61-.98.36-.13.73-.26,1.14-.38.34-.11.81-.17,1.32-.23.81-.1,1.81-.23,2.83-.62.5-.19,1-.35,1.56-.54.72-.24,1.47-.48,2.23-.79.67-.27,1.34-.52,2.03-.77,2.1-.78,4.27-1.59,6.42-2.95,1.82-1.15,3.73-2.07,5.8-3.07.98-.47,1.99-.96,3-1.49,3.26-1.7,5.67-3.65,7.82-6.34.25-.31.66-.63,1.14-1.01.48-.38,1.03-.8,1.55-1.34,1.48-1.49,2.44-3.29,3.11-4.7.92-1.95,1.93-3.81,3.01-5.79.53-.97,1.05-1.93,1.57-2.91.5-.95,1.15-1.9,1.84-2.92,1.12-1.65,2.28-3.35,3.05-5.36.75-1.94,1.28-3.86,1.59-5.72.34-.47.57-.95.72-1.47.28-.93.13-1.9-.4-2.7ZM319.93,280.93c-.25,2.02-.79,4-1.54,5.93-1.09,2.84-3.32,5.26-4.74,7.95-1.56,2.96-3.21,5.8-4.64,8.82-.65,1.37-1.43,2.75-2.5,3.83-.93.94-2.1,1.56-2.92,2.6-1.94,2.42-4.05,4.07-6.82,5.51-3.04,1.57-6.12,2.85-9.02,4.69-2.53,1.6-5.2,2.36-7.94,3.46-1.21.49-2.5.84-3.72,1.3-1.28.49-2.69.39-3.99.8-1.46.45-2.7,1.03-4.23,1.24-1.49.2-2.97.5-4.46.72-3.34.46-7.05.98-10.41.52-3.39-.46-6.94-1.21-10.13-2.46-3.23-1.28-6.12-3.19-9.37-4.44-2.79-1.08-4.77-2.66-6.5-5.1-1.35-1.91-3.21-4.13-3.72-6.48-.56-2.63,1.61-4.73,3.13-6.55-.91-.29-1.81-.9-2.53-1.51-1.84-1.56-3.06-3.96-3.16-6.37-.06-1.42.26-2.81.38-4.22-.97.45-1.95.89-2.94,1.32-8.87,3.84-18.91,8.27-28.76,6.11-2.02-.44-4.1-1.08-5.59-2.63-.7-.73-1.16-1.61-1.94-2.28-.59-.51-1.2-.91-1.69-1.56-2.71-3.57-3.12-8.94-3.48-13.22-.21-2.53-.63-5.04-.85-7.57-.2-2.38.06-4.69.16-7.07.25-5.45,1.52-10.77,3.07-15.98,1.53-5.13,3.19-10.42,5.52-15.25,2.26-4.69,5.78-8.56,9.12-12.48,1.64-1.94,3.02-4,4.8-5.83,1.65-1.69,3.39-3.28,5.17-4.83,1.08-.94,2.13-2.13,3.39-2.81.75-.41,1.66-.59,2.46-.85,2.1-.67,4.31-1.45,6.5-1.77,1.65-.25,3.3-.26,4.93-.04,1.15-.07,2.3-.08,3.52.16,1.02.2,2.12.45,3.06.91.73.35,1.56.55,2.25.98.73.46,1.03,1.08,1.46,1.8.37.6.45,1.21.73,1.8.17.35.33.58.42.87.09.05.16.12.27.14.65.14,1.54-.19,2.24-.13.72.06,1.39.26,2.08.47,3.07.95,5.31,2.78,7.27,5.25.35-1.34.77-2.68,1.21-4,1.75-5.28,3.09-10.62,5.09-15.83,3.36-8.76,7.08-18.48,14.58-24.56,3.21-2.6,7.37-4.7,11.61-3.78,1.19.26,2.33.7,3.54.85,1.01.12,1.99.14,2.96.49.92.32,1.84.82,2.63,1.39.57.42,1.08.97,1.67,1.37,1.62-.07,3.2-.14,4.82.13,1.99.34,3.28,1.31,4.8,2.58,1.7,1.42,3.01,3.21,4.19,5.06,1.13,1.77,2.43,3.4,3.64,5.11.87,1.22,1.26,2.58,2.1,3.83.95,1.43,1.21,2.88,1.89,4.41,1.36,3.07,2.53,6.16,3.04,9.53.54,3.62,1.35,7.18,1.89,10.8.27,1.76-.04,3.48.02,5.25.05,1.47.02,2.88-.33,4.31-.76,3.16-.55,6.48-1.36,9.65-.92,3.59-2.38,6.95-3.42,10.48-1.13,3.81-2.56,7.51-4.4,11.04-.21.39-.41.78-.62,1.17,1.6.42,3.13,1.06,4.64,2.02,2.56,1.63,4.95,3.55,7.19,5.58.96.86,2.12,1.38,2.91,2.43.78,1.05,1.33,2.34,1.68,3.6.82,3-.19,6.01-.18,9.03,0,.54-.04,1.08-.09,1.62.14-.11.26-.24.35-.39.07-.14.32-.08.27.09-.11.4-.38.72-.68,1.01Z"/>
  <path class="cls-3" d="M200.99,241.53h-.02s-.02,0,.02,0Z"/>
  <path class="cls-3" d="M187.7,293.29s0,0,0,0c0-.01,0-.01,0,0Z"/>
  <path class="cls-2" d="M248.39,257.85c-.33.63-.67,1.26-.99,1.9-.32.64-.65,1.28-.95,1.94-.89,1.92-2.14,3.61-3.08,5.51-.26.51-.52,1.03-.78,1.54,2.54-1.35,5.27-2.53,7.92-3.65,1.19-.5,2.36-1.04,3.53-1.57-.91-.72-1.77-1.48-2.6-2.23-1.16-1.04-2.2-2.17-3.05-3.44Z"/>
</svg>